<svg xmlns="http://www.w3.org/2000/svg" xmlns:xlink="http://www.w3.org/1999/xlink" width="57.964" height="57" viewBox="0 0 57.964 57">
  <defs>
    <style>
      .cls-1 {
        fill: #e2e2e3;
      }

      .cls-2 {
        fill: #ef6d58;
      }

      .cls-3 {
        clip-path: url(#clip-path);
      }

      .cls-4 {
        clip-path: url(#clip-path-2);
      }
    </style>
    <clipPath id="clip-path">
      <rect id="Rectangle_14" data-name="Rectangle 14" class="cls-1" width="56.964" height="57"/>
    </clipPath>
    <clipPath id="clip-path-2">
      <rect id="Rectangle_13" data-name="Rectangle 13" class="cls-2" width="21" height="21"/>
    </clipPath>
  </defs>
  <g id="Group_208" data-name="Group 208" transform="translate(-265 -1307)">
    <g id="Group_34" data-name="Group 34" transform="translate(266 1307)">
      <g id="Group_33" data-name="Group 33" class="cls-3">
        <path id="Path_77" data-name="Path 77" class="cls-1" d="M35.6,47.506a9.494,9.494,0,1,1-18.988,0h4.747a4.747,4.747,0,1,0,4.747-4.747H0V38.012H26.109A9.494,9.494,0,0,1,35.6,47.506M47.47,21.4A9.494,9.494,0,1,0,37.976,11.9h4.747A4.747,4.747,0,1,1,47.47,16.65H37.976a21.423,21.423,0,0,1-.529,4.747Zm0,4.747H35.755a21.493,21.493,0,0,1-3.218,4.747H47.47a4.747,4.747,0,1,1-4.747,4.747H37.976a9.494,9.494,0,1,0,9.494-9.494M7.014,19.94,1.4,18.418.161,23l4.272,1.158L3.275,28.43l4.583,1.241L9.38,24.058l4.861-2.791v5.611L10.13,30.989l3.356,3.356,3.128-3.128,3.128,3.128L23.1,30.989l-4.111-4.111V21.267l4.863,2.789,1.521,5.613,4.583-1.241L28.8,24.155,33.07,23l-1.241-4.581-5.611,1.521-4.833-2.765L26.213,14.4l5.613,1.521,1.241-4.579L28.8,10.187l1.158-4.272L25.373,4.676l-1.521,5.611-4.863,2.789V7.469L23.1,3.358,19.743,0,16.615,3.121,13.486,0,10.13,3.358l4.111,4.111v5.606L9.378,10.287,7.856,4.676,3.273,5.92l1.158,4.272L.159,11.353,1.4,15.938l5.613-1.521,4.828,2.756Z"/>
      </g>
    </g>
    <g id="Group_29" data-name="Group 29" transform="translate(265.338 1343.338)">
      <g id="Group_26" data-name="Group 26" class="cls-4" transform="translate(-0.338 -0.338)">
        <path id="Path_76" data-name="Path 76" class="cls-2" d="M10.251,0A10.251,10.251,0,1,0,20.5,10.251,10.251,10.251,0,0,0,10.251,0m4.021,13.064-1.208,1.208-2.813-2.813L7.438,14.272,6.23,13.064l2.813-2.813L6.23,7.438,7.438,6.23l2.813,2.813L13.064,6.23l1.208,1.208-2.813,2.813Z" transform="translate(0.221 0.221)"/>
      </g>
    </g>
  </g>
</svg>
