<svg id="Component_7_1" data-name="Component 7 – 1" xmlns="http://www.w3.org/2000/svg" xmlns:xlink="http://www.w3.org/1999/xlink" width="56.953" height="57" viewBox="0 0 56.953 57">
  <defs>
    <style>
      .cls-1 {
        fill: #e2e2e3;
      }

      .cls-2 {
        fill: #ef6d58;
      }

      .cls-3 {
        clip-path: url(#clip-path);
      }

      .cls-4 {
        clip-path: url(#clip-path-2);
      }
    </style>
    <clipPath id="clip-path">
      <rect id="Rectangle_15" data-name="Rectangle 15" class="cls-1" width="56.952" height="57"/>
    </clipPath>
    <clipPath id="clip-path-2">
      <rect id="Rectangle_13" data-name="Rectangle 13" class="cls-2" width="21" height="21"/>
    </clipPath>
  </defs>
  <g id="Group_36" data-name="Group 36">
    <g id="Group_35" data-name="Group 35" class="cls-3">
      <path id="Path_78" data-name="Path 78" class="cls-1" d="M45.125,9.5H42.513A11.876,11.876,0,0,0,30.875,0h-19A11.879,11.879,0,0,0,0,11.875V42.417a5.066,5.066,0,0,0,2.684,4.489,5.121,5.121,0,0,0,2.4.594,5.062,5.062,0,0,0,2.826-.855l7.054-4.7A11.847,11.847,0,0,0,26.1,49.875H39.639l9.405,6.27A5.062,5.062,0,0,0,51.87,57a4.985,4.985,0,0,0,2.4-.594,5.066,5.066,0,0,0,2.684-4.489V21.375A11.879,11.879,0,0,0,45.078,9.5ZM5.3,42.7a.329.329,0,0,1-.356,0,.323.323,0,0,1-.19-.309V11.875A7.146,7.146,0,0,1,11.875,4.75h19A7.146,7.146,0,0,1,38,11.875V28.5a7.146,7.146,0,0,1-7.125,7.125H16.625a2.3,2.3,0,0,0-1.306.4L5.32,42.7ZM52.25,51.917a.364.364,0,0,1-.19.309.427.427,0,0,1-.356,0l-10-6.674a2.353,2.353,0,0,0-1.306-.4H26.149a7.15,7.15,0,0,1-6.7-4.75H30.9A11.879,11.879,0,0,0,42.774,28.524V14.25h2.375a7.146,7.146,0,0,1,7.125,7.125V51.917ZM18.359,30.875a7.14,7.14,0,0,1-6.175-3.563,2.379,2.379,0,0,1,4.109-2.4A2.383,2.383,0,0,0,18.359,26.1h6.27a1.483,1.483,0,0,0,.237-2.945L17.053,21.85A6.23,6.23,0,0,1,18.074,9.476h.9a2.375,2.375,0,1,1,4.75,0h.641a7.14,7.14,0,0,1,6.175,3.563,2.379,2.379,0,0,1-4.109,2.4,2.383,2.383,0,0,0-2.066-1.187H18.1a1.48,1.48,0,0,0-1.472,1.472,1.5,1.5,0,0,0,1.235,1.473L25.65,18.5a6.23,6.23,0,0,1-1.021,12.374h-.9a2.375,2.375,0,1,1-4.75,0h-.618Z"/>
    </g>
  </g>
  <g id="Group_31" data-name="Group 31" transform="translate(0.338 36.338)">
    <g id="Group_26" data-name="Group 26" class="cls-4" transform="translate(-0.338 -0.338)">
      <path id="Path_76" data-name="Path 76" class="cls-2" d="M10.251,0A10.251,10.251,0,1,0,20.5,10.251,10.251,10.251,0,0,0,10.251,0m4.021,13.064-1.208,1.208-2.813-2.813L7.438,14.272,6.23,13.064l2.813-2.813L6.23,7.438,7.438,6.23l2.813,2.813L13.064,6.23l1.208,1.208-2.813,2.813Z" transform="translate(0.221 0.221)"/>
    </g>
  </g>
</svg>
