<svg xmlns="http://www.w3.org/2000/svg" xmlns:xlink="http://www.w3.org/1999/xlink" width="51.704" height="57" viewBox="0 0 51.704 57">
  <defs>
    <style>
      .cls-1 {
        fill: #e2e2e3;
      }

      .cls-2 {
        fill: #ef6d58;
      }

      .cls-3 {
        clip-path: url(#clip-path);
      }

      .cls-4 {
        clip-path: url(#clip-path-2);
      }
    </style>
    <clipPath id="clip-path">
      <rect id="Rectangle_11" data-name="Rectangle 11" class="cls-1" width="51.704" height="51.745"/>
    </clipPath>
    <clipPath id="clip-path-2">
      <rect id="Rectangle_13" data-name="Rectangle 13" class="cls-2" width="21" height="21"/>
    </clipPath>
  </defs>
  <g id="Group_207" data-name="Group 207" transform="translate(-266 -1082)">
    <g id="Group_22" data-name="Group 22" transform="translate(266 1082)">
      <g id="Group_21" data-name="Group 21" class="cls-3" transform="translate(0 0)">
        <path id="Path_74" data-name="Path 74" class="cls-1" d="M34.473,4.359a4.308,4.308,0,1,1,8.616,0,4.308,4.308,0,1,1,8.616,0c0,5.025-8.616,10.769-8.616,10.769S34.473,9.384,34.473,4.359M50.231,20.623l1.473.491v22.7l-.754.644c-.347.3-8.691,7.289-25.093,7.289A32.781,32.781,0,0,1,.011,38.987c-.071-7.457-.226-25,14.381-36.232A11.84,11.84,0,0,1,21.55,0c5.393,0,8.616,3.834,8.616,7.539V9L25.9,10.7v2.227l-6.434,2.048a28.246,28.246,0,0,0-.022,3.532,35.287,35.287,0,0,1-.618,9.167A20.905,20.905,0,0,1,26.934,25.9a12.507,12.507,0,0,1,4.047.694c.862-1.09,5.932-7.155,12.107-7.155a25.625,25.625,0,0,1,7.142,1.187ZM47.4,24.309a19.371,19.371,0,0,0-4.308-.564c-3.235,0-6.6,3.059-8.2,4.883a14.716,14.716,0,0,1,2.789,2.645l-3.44,2.593a10.112,10.112,0,0,0-7.31-3.659c-5.893,0-11.006,4.047-11.058,4.088l-2.707-3.351c2.218-4.312,2.076-8.8,1.966-12.3a17.118,17.118,0,0,1,.463-6.061l.355-1.01,5.635-1.794v-2l3.9-1.551a4.231,4.231,0,0,0-3.935-1.919,7.817,7.817,0,0,0-4.428,1.777C4.11,16.1,4.245,30.3,4.314,37.574a27.777,27.777,0,0,0,21.543,9.863c12.156,0,19.314-4.161,21.539-5.693Z" transform="translate(0 0)"/>
      </g>
    </g>
    <g id="Group_28" data-name="Group 28" transform="translate(266.338 1118.338)">
      <g id="Group_26" data-name="Group 26" class="cls-4" transform="translate(-0.338 -0.338)">
        <path id="Path_76" data-name="Path 76" class="cls-2" d="M10.251,0A10.251,10.251,0,1,0,20.5,10.251,10.251,10.251,0,0,0,10.251,0m4.021,13.064-1.208,1.208-2.813-2.813L7.438,14.272,6.23,13.064l2.813-2.813L6.23,7.438,7.438,6.23l2.813,2.813L13.064,6.23l1.208,1.208-2.813,2.813Z" transform="translate(0.221 0.221)"/>
      </g>
    </g>
  </g>
</svg>
