<svg xmlns="http://www.w3.org/2000/svg" xmlns:xlink="http://www.w3.org/1999/xlink" width="52" height="57" viewBox="0 0 52 57">
  <defs>
    <style>
      .cls-1 {
        fill: #e2e2e3;
      }

      .cls-2 {
        fill: #ef6d58;
      }

      .cls-3 {
        clip-path: url(#clip-path);
      }

      .cls-4 {
        clip-path: url(#clip-path-2);
      }
    </style>
    <clipPath id="clip-path">
      <rect id="Rectangle_12" data-name="Rectangle 12" class="cls-1" width="52" height="52"/>
    </clipPath>
    <clipPath id="clip-path-2">
      <rect id="Rectangle_13" data-name="Rectangle 13" class="cls-2" width="21" height="21"/>
    </clipPath>
  </defs>
  <g id="Group_206" data-name="Group 206" transform="translate(-779 -1082)">
    <g id="Group_25" data-name="Group 25" transform="translate(779 1082)">
      <g id="Group_24" data-name="Group 24" class="cls-3">
        <path id="Path_75" data-name="Path 75" class="cls-1" d="M28.167,13V24.509l9.02,5.531-2.264,3.694-11.089-6.8V13h4.333ZM26,47.667A21.667,21.667,0,1,1,43.294,13H34.667v4.333H45.5A4.338,4.338,0,0,0,49.833,13V2.167H45.5V8.808A26,26,0,1,0,26,52a26.172,26.172,0,0,0,3.027-.175l-.5-4.3A21.956,21.956,0,0,1,26,47.667M44.527,37.241l3.707,2.247a26.284,26.284,0,0,0,2.074-4.24L46.258,33.7a21.639,21.639,0,0,1-1.731,3.538M47.667,26a21.982,21.982,0,0,1-.353,3.922l4.262.778A26.2,26.2,0,0,0,52,26ZM39.319,43.091l2.663,3.419a26.214,26.214,0,0,0,3.445-3.226L42.189,40.4a21.706,21.706,0,0,1-2.869,2.689Zm-6.944,3.625,1.274,4.143a25.933,25.933,0,0,0,4.368-1.794L36.01,45.223a21.274,21.274,0,0,1-3.636,1.493"/>
      </g>
    </g>
    <g id="Group_27" data-name="Group 27" transform="translate(779.338 1118.338)">
      <g id="Group_26" data-name="Group 26" class="cls-4" transform="translate(-0.338 -0.338)">
        <path id="Path_76" data-name="Path 76" class="cls-2" d="M10.251,0A10.251,10.251,0,1,0,20.5,10.251,10.251,10.251,0,0,0,10.251,0m4.021,13.064-1.208,1.208-2.813-2.813L7.438,14.272,6.23,13.064l2.813-2.813L6.23,7.438,7.438,6.23l2.813,2.813L13.064,6.23l1.208,1.208-2.813,2.813Z" transform="translate(0.221 0.221)"/>
      </g>
    </g>
  </g>
</svg>
