<svg xmlns="http://www.w3.org/2000/svg" width="117.527" height="133.503" viewBox="0 0 117.527 133.503">
  <defs>
    <style>
      .cls-1 {
        fill: #ffd5ce;
      }
    </style>
  </defs>
  <path id="Combined_Shape" data-name="Combined Shape" class="cls-1" d="M69.5,113.16a85.715,85.715,0,0,0-1.766-29.95A123.078,123.078,0,0,0,44.8,34.792,123.805,123.805,0,0,0,25.818,15.134,125.185,125.185,0,0,0,13.9,6.538l5.738,1.229a1.03,1.03,0,0,0,.214.1c.76.2,1.517.365,2.275.506q2.025.443,4.082.682l0-.023a1.923,1.923,0,0,0,1.837-1.435,2.068,2.068,0,0,0-1.37-2.457A42.049,42.049,0,0,0,20.5,3.758L14.568,2.522Q8.5,1.251,2.418.1A1.884,1.884,0,0,0,.175,1.167,1.935,1.935,0,0,0,1,3.558q1.527.719,3.031,1.487a1.773,1.773,0,0,0,0,.214A39.538,39.538,0,0,0,5.2,13.566a32.3,32.3,0,0,0,1.4,4.16,6.639,6.639,0,0,0,1.932,3.141,1.267,1.267,0,0,0,1.1.094,1.173,1.173,0,0,0,.716-.795,7.691,7.691,0,0,0-.74-3.462c-.4-1.232-.745-2.484-1.091-3.735a57.949,57.949,0,0,1-1.39-6.279A105.252,105.252,0,0,1,25.912,19.965a123.361,123.361,0,0,1,31.231,42.2A118.724,118.724,0,0,1,65.152,87.05a152.224,152.224,0,0,1,2.722,25.865h0a.913.913,0,0,0,.929.825A.648.648,0,0,0,69.5,113.16Z" transform="translate(117.572 98.485) rotate(150)"/>
</svg>
