<svg xmlns="http://www.w3.org/2000/svg" xmlns:xlink="http://www.w3.org/1999/xlink" width="57" height="67" viewBox="0 0 57 67">
  <defs>
    <style>
      .cls-1 {
        fill: #e2e2e3;
      }

      .cls-2 {
        fill: #ef6d58;
      }

      .cls-3 {
        clip-path: url(#clip-path);
      }

      .cls-4 {
        fill: #391400;
        font-size: 20px;
        font-family: Inter-ExtraBold, Inter;
        font-weight: 800;
      }

      .cls-5 {
        clip-path: url(#clip-path-2);
      }
    </style>
    <clipPath id="clip-path">
      <rect id="Rectangle_29" data-name="Rectangle 29" class="cls-1" width="52" height="52" transform="translate(0 0)"/>
    </clipPath>
    <clipPath id="clip-path-2">
      <rect id="Rectangle_16" data-name="Rectangle 16" class="cls-2" width="18" height="18" transform="translate(0 -0.256)"/>
    </clipPath>
  </defs>
  <g id="Group_210" data-name="Group 210" transform="translate(-715 -1780)">
    <g id="Group_64" data-name="Group 64" transform="translate(720 1795)">
      <g id="Group_63" data-name="Group 63" class="cls-3" transform="translate(0 0)">
        <path id="Path_90" data-name="Path 90" class="cls-1" d="M13,24.334V15.167l3.885,3.885L22.936,13,16.885,6.948,13,10.833V1.666A1.665,1.665,0,0,1,14.666,0h9.167L19.948,3.885,26,9.936l6.051-6.051L28.167,0h9.167A1.665,1.665,0,0,1,39,1.666v9.167L35.115,6.948,29.064,13l6.051,6.051L39,15.167v9.167A1.665,1.665,0,0,1,37.334,26H28.167l3.885-3.885L26,16.064l-6.051,6.051L23.833,26H14.666A1.665,1.665,0,0,1,13,24.334m39,19v-32.5a6.508,6.508,0,0,0-6.5-6.5H43.333V8.667H45.5a2.169,2.169,0,0,1,2.167,2.167V39H4.333V10.833A2.169,2.169,0,0,1,6.5,8.667H8.667V4.333H6.5a6.508,6.508,0,0,0-6.5,6.5v32.5H23.833v4.333H13V52H39V47.666H28.167V43.333Z" transform="translate(0 0)"/>
      </g>
    </g>
    <text id="_02" data-name="02" class="cls-4" transform="translate(738 1799)"><tspan x="0" y="0">02</tspan></text>
    <g id="Group_49" data-name="Group 49" transform="translate(715 1783.35)">
      <g id="Group_37" data-name="Group 37" class="cls-5" transform="translate(0 -0.094)">
        <path id="Path_79" data-name="Path 79" class="cls-2" d="M8.958,0a8.958,8.958,0,1,0,8.958,8.958A8.968,8.968,0,0,0,8.958,0M8.89,11.51a1.479,1.479,0,0,1-1.05.433,1.494,1.494,0,0,1-1.057-.437L4.706,9.493l1.04-1.073L7.83,10.441l4.336-4.256L13.215,7.25,8.89,11.51Z" transform="translate(0 -0.171)"/>
      </g>
    </g>
  </g>
</svg>
