<svg xmlns="http://www.w3.org/2000/svg" xmlns:xlink="http://www.w3.org/1999/xlink" width="52" height="64" viewBox="0 0 52 64">
  <defs>
    <style>
      .cls-1 {
        fill: #e2e2e3;
      }

      .cls-2 {
        fill: #ef6d58;
      }

      .cls-3 {
        clip-path: url(#clip-path);
      }

      .cls-4 {
        clip-path: url(#clip-path-2);
      }

      .cls-5 {
        fill: #391400;
        font-size: 20px;
        font-family: Inter-ExtraBold, Inter;
        font-weight: 800;
      }
    </style>
    <clipPath id="clip-path">
      <rect id="Rectangle_12" data-name="Rectangle 12" class="cls-1" width="52" height="52"/>
    </clipPath>
    <clipPath id="clip-path-2">
      <rect id="Rectangle_16" data-name="Rectangle 16" class="cls-2" width="18" height="18" transform="translate(0 -0.256)"/>
    </clipPath>
  </defs>
  <g id="Group_209" data-name="Group 209" transform="translate(-715 -1662)">
    <g id="Group_52" data-name="Group 52" transform="translate(714.596 1673.596)">
      <g id="Group_24" data-name="Group 24" class="cls-3" transform="translate(0.404 0.404)">
        <path id="Path_75" data-name="Path 75" class="cls-1" d="M28.573,13.187V24.863l9.15,5.611-2.3,3.747-11.249-6.9V13.185h4.4Zm-2.2,35.166A21.979,21.979,0,1,1,43.918,13.187H35.166v4.4H46.156a4.4,4.4,0,0,0,4.4-4.4V2.2h-4.4V8.934A26.373,26.373,0,1,0,26.375,52.749a26.549,26.549,0,0,0,3.07-.178l-.506-4.365a22.273,22.273,0,0,1-2.565.147M45.169,37.777l3.761,2.279a26.662,26.662,0,0,0,2.1-4.3l-4.108-1.567a21.951,21.951,0,0,1-1.756,3.589m3.185-11.4A22.3,22.3,0,0,1,48,30.353l4.323.789a26.579,26.579,0,0,0,.431-4.767ZM39.885,43.712l2.7,3.468a26.592,26.592,0,0,0,3.495-3.273L42.8,40.984a22.019,22.019,0,0,1-2.91,2.728Zm-7.044,3.677,1.292,4.2a26.306,26.306,0,0,0,4.431-1.82l-2.035-3.9a21.582,21.582,0,0,1-3.688,1.514" transform="translate(-0.375 -0.375)"/>
      </g>
    </g>
    <g id="Group_48" data-name="Group 48" transform="translate(715 1665.35)">
      <g id="Group_37" data-name="Group 37" class="cls-4" transform="translate(0 -0.094)">
        <path id="Path_79" data-name="Path 79" class="cls-2" d="M8.958,0a8.958,8.958,0,1,0,8.958,8.958A8.968,8.968,0,0,0,8.958,0M8.89,11.51a1.479,1.479,0,0,1-1.05.433,1.494,1.494,0,0,1-1.057-.437L4.706,9.493l1.04-1.073L7.83,10.441l4.336-4.256L13.215,7.25,8.89,11.51Z" transform="translate(0 -0.171)"/>
      </g>
    </g>
    <text id="_01" data-name="01" class="cls-5" transform="translate(738 1681)"><tspan x="0" y="0">01</tspan></text>
  </g>
</svg>
