<svg xmlns="http://www.w3.org/2000/svg" xmlns:xlink="http://www.w3.org/1999/xlink" width="57" height="61" viewBox="0 0 57 61">
  <defs>
    <style>
      .cls-1 {
        fill: #e2e2e3;
      }

      .cls-2 {
        fill: #ef6d58;
      }

      .cls-3 {
        clip-path: url(#clip-path);
      }

      .cls-4 {
        clip-path: url(#clip-path-2);
      }

      .cls-5 {
        fill: #391400;
        font-size: 20px;
        font-family: Inter-ExtraBold, Inter;
        font-weight: 800;
      }
    </style>
    <clipPath id="clip-path">
      <rect id="Rectangle_28" data-name="Rectangle 28" class="cls-1" width="52" height="52"/>
    </clipPath>
    <clipPath id="clip-path-2">
      <rect id="Rectangle_16" data-name="Rectangle 16" class="cls-2" width="18" height="18" transform="translate(0 -0.256)"/>
    </clipPath>
  </defs>
  <g id="Group_212" data-name="Group 212" transform="translate(-715 -2047)">
    <g id="Group_62" data-name="Group 62" transform="translate(719.586 2055.586)">
      <g id="Group_61" data-name="Group 61" class="cls-3" transform="translate(0.414 0.414)">
        <path id="Path_89" data-name="Path 89" class="cls-1" d="M30.8,37.4H44v4.4H30.8Zm0-4.4h4.4V28.6H30.8ZM44,8.8H17.6v6.949A23.024,23.024,0,0,1,22,16.873V13.2H39.6v4.4H23.686A13.633,13.633,0,0,1,29.047,22H44ZM46.2,0H15.4A6.6,6.6,0,0,0,8.8,6.6v9.149a28.164,28.164,0,0,1,4.4-.35V6.6a2.2,2.2,0,0,1,2.2-2.2H46.2a2.2,2.2,0,0,1,2.2,2.2V48.4h-18.2a10.825,10.825,0,0,1-3.117,4.4H52.8V6.6A6.6,6.6,0,0,0,46.2,0M44,28.6H39.6V33H44ZM26.4,27.5V45.1c0,4.389-5.674,7.7-13.2,7.7S0,49.486,0,45.1V27.5c0-4.389,5.674-7.7,13.2-7.7s13.2,3.311,13.2,7.7M22,45.1V42.132A19.649,19.649,0,0,1,13.2,44a19.649,19.649,0,0,1-8.8-1.866V45.1c0,1.164,3.342,3.3,8.8,3.3S22,46.261,22,45.1m0-8.8V33.333A19.649,19.649,0,0,1,13.2,35.2a19.649,19.649,0,0,1-8.8-1.866V36.3c0,1.164,3.342,3.3,8.8,3.3S22,37.462,22,36.3m0-8.8c0-1.164-3.342-3.3-8.8-3.3s-8.8,2.136-8.8,3.3,3.342,3.3,8.8,3.3S22,28.662,22,27.5" transform="translate(-0.398 -0.398)"/>
      </g>
    </g>
    <g id="Group_51" data-name="Group 51" transform="translate(715 2050.35)">
      <g id="Group_37" data-name="Group 37" class="cls-4" transform="translate(0 -0.094)">
        <path id="Path_79" data-name="Path 79" class="cls-2" d="M8.958,0a8.958,8.958,0,1,0,8.958,8.958A8.968,8.968,0,0,0,8.958,0M8.89,11.51a1.479,1.479,0,0,1-1.05.433,1.494,1.494,0,0,1-1.057-.437L4.706,9.493l1.04-1.073L7.83,10.441l4.336-4.256L13.215,7.25,8.89,11.51Z" transform="translate(0 -0.171)"/>
      </g>
    </g>
    <text id="_04" data-name="04" class="cls-5" transform="translate(738 2066)"><tspan x="0" y="0">04</tspan></text>
  </g>
</svg>
