<svg xmlns="http://www.w3.org/2000/svg" xmlns:xlink="http://www.w3.org/1999/xlink" width="52" height="54.299" viewBox="0 0 52 54.299">
  <defs>
    <style>
      .cls-1 {
        fill: #edeff1;
      }

      .cls-2 {
        fill: #ef6d58;
      }

      .cls-3 {
        clip-path: url(#clip-path);
      }

      .cls-4 {
        clip-path: url(#clip-path-2);
      }
    </style>
    <clipPath id="clip-path">
      <rect id="Rectangle_39" data-name="Rectangle 39" class="cls-1" width="52" height="49.966"/>
    </clipPath>
    <clipPath id="clip-path-2">
      <rect id="Rectangle_16" data-name="Rectangle 16" class="cls-2" width="18" height="17" transform="translate(0 -0.175)"/>
    </clipPath>
  </defs>
  <g id="Group_208" data-name="Group 208" transform="translate(-761.031 -7540.701)">
    <g id="Group_108" data-name="Group 108" transform="translate(761.031 7540.701)">
      <g id="Group_107" data-name="Group 107" class="cls-3" transform="translate(0 0)">
        <path id="Path_95" data-name="Path 95" class="cls-1" d="M52,24.983,44.385,32.3V42.649H33.616L26,49.966l-7.616-7.318H7.616V32.3L0,24.983l7.616-7.318V7.318H18.385L26,0l7.616,7.318H41.69l-4.36,4.157h-5.5L26,5.879,20.18,11.474H11.943v7.914L6.121,24.983l5.822,5.595v7.914H20.18L26,44.087l5.822-5.595h8.236V30.578l5.822-5.595-2.141-2.058L46.811,20ZM25.025,29.061,46.106,8.96l3.045,2.951L27.938,32.137a4.239,4.239,0,0,1-5.835-.008l-8.433-7.981L16.7,21.186l8.323,7.875m.123.116,0,0,.006,0Z" transform="translate(0 0)"/>
      </g>
    </g>
    <g id="Group_111" data-name="Group 111" transform="translate(762 7578.175)">
      <g id="Group_37" data-name="Group 37" class="cls-4" transform="translate(0 0)">
        <path id="Path_79" data-name="Path 79" class="cls-2" d="M8.958,0A8.8,8.8,0,0,0,0,8.607a8.8,8.8,0,0,0,8.958,8.607,8.8,8.8,0,0,0,8.958-8.607A8.8,8.8,0,0,0,8.958,0M8.89,11.06a1.511,1.511,0,0,1-1.05.416,1.526,1.526,0,0,1-1.057-.42L4.706,9.122l1.04-1.031L7.83,10.033l4.336-4.089,1.048,1.022L8.89,11.06Z" transform="translate(0 0.082)"/>
      </g>
    </g>
  </g>
</svg>
