<svg xmlns="http://www.w3.org/2000/svg" xmlns:xlink="http://www.w3.org/1999/xlink" width="61.2" height="58" viewBox="0 0 61.2 58">
  <defs>
    <style>
      .cls-1 {
        fill: #e2e2e3;
      }

      .cls-2 {
        fill: #ef6d58;
      }

      .cls-3 {
        clip-path: url(#clip-path);
      }

      .cls-4 {
        clip-path: url(#clip-path-2);
      }
    </style>
    <clipPath id="clip-path">
      <rect id="Rectangle_54" data-name="Rectangle 54" class="cls-1" width="52" height="52"/>
    </clipPath>
    <clipPath id="clip-path-2">
      <rect id="Rectangle_16" data-name="Rectangle 16" class="cls-2" width="18" height="18" transform="translate(0 -0.256)"/>
    </clipPath>
  </defs>
  <g id="Group_215" data-name="Group 215" transform="translate(-325.198 -1214.432)">
    <g id="Group_158" data-name="Group 158" transform="translate(334.398 1214.432)">
      <g id="Group_157" data-name="Group 157" class="cls-3">
        <path id="Path_109" data-name="Path 109" class="cls-1" d="M45.44,0H6.491A6.491,6.491,0,0,0,0,6.491v45.44H51.931V6.491A6.491,6.491,0,0,0,45.44,0M6.491,4.328H45.44A2.164,2.164,0,0,1,47.6,6.491V44.544L24.064,21a6.491,6.491,0,0,0-9.179,0L4.328,31.561V6.491A2.164,2.164,0,0,1,6.491,4.328M4.328,37.68,17.944,24.064a2.164,2.164,0,0,1,3.06,0L44.544,47.6H4.328Z"/>
        <path id="Path_110" data-name="Path 110" class="cls-1" d="M283.824,98.316a6.491,6.491,0,1,0-6.491-6.491,6.491,6.491,0,0,0,6.491,6.491m0-8.655a2.164,2.164,0,1,1-2.164,2.164,2.164,2.164,0,0,1,2.164-2.164" transform="translate(-249.204 -76.678)"/>
      </g>
    </g>
    <g id="Group_159" data-name="Group 159" transform="translate(325.198 1254.782)">
      <g id="Group_37" data-name="Group 37" class="cls-4" transform="translate(0 -0.094)">
        <path id="Path_79" data-name="Path 79" class="cls-2" d="M8.958,0a8.958,8.958,0,1,0,8.958,8.958A8.968,8.968,0,0,0,8.958,0M8.89,11.51a1.479,1.479,0,0,1-1.05.433,1.494,1.494,0,0,1-1.057-.437L4.706,9.493l1.04-1.073L7.83,10.441l4.336-4.256L13.215,7.25,8.89,11.51Z" transform="translate(0 -0.171)"/>
      </g>
    </g>
  </g>
</svg>
